<?xml version="1.0" standalone="no"?>
<!DOCTYPE svg PUBLIC "-//W3C//DTD SVG 20010904//EN"
 "http://www.w3.org/TR/2001/REC-SVG-20010904/DTD/svg10.dtd">
<svg version="1.0" xmlns="http://www.w3.org/2000/svg"
 width="400.000000pt" height="300.000000pt" viewBox="0 0 400.000000 300.000000"
 preserveAspectRatio="xMidYMid meet">

<g transform="translate(0.000000,300.000000) scale(0.100000,-0.100000)"
fill="#000000" stroke="none">
<path d="M1557 1674 c-4 -4 -7 -68 -7 -141 l0 -134 88 3 c69 2 87 6 87 18 0
12 -15 16 -67 18 l-68 3 0 39 0 39 58 3 c43 2 57 7 57 18 0 11 -14 16 -57 18
l-58 3 0 39 0 39 68 3 c52 2 67 6 67 18 0 12 -17 16 -80 18 -45 1 -84 0 -88
-4z"/>
<path d="M2146 1671 c-4 -6 18 -68 48 -138 38 -91 59 -128 71 -128 22 0 132
252 116 268 -20 20 -37 -3 -71 -97 -19 -53 -38 -96 -41 -96 -3 0 -24 44 -46
98 -38 90 -61 119 -77 93z"/>
<path d="M2613 1668 c-15 -21 -103 -236 -103 -253 0 -27 31 -16 41 15 11 29
13 30 78 30 65 0 67 -1 78 -30 12 -32 43 -42 43 -14 0 18 -87 232 -103 252 -5
6 -13 12 -17 12 -4 0 -12 -6 -17 -12z m42 -120 l15 -38 -41 0 c-22 0 -39 3
-37 8 2 4 10 24 18 44 16 42 22 40 45 -14z"/>
<path d="M2907 1673 c-4 -3 -7 -51 -7 -106 l0 -99 35 -35 c33 -33 39 -35 81
-30 32 3 55 13 73 31 25 25 26 31 26 134 0 94 -2 107 -17 110 -16 3 -18 -6
-18 -92 0 -106 -14 -136 -66 -136 -56 0 -64 13 -64 103 0 45 -3 92 -6 105 -6
21 -24 29 -37 15z"/>
<path d="M3307 1674 c-4 -4 -7 -67 -7 -141 l0 -133 86 0 c76 0 85 2 82 18 -3
14 -16 18 -65 20 l-62 3 -3 116 c-3 108 -11 137 -31 117z"/>
<path d="M3580 1660 c0 -17 6 -20 40 -20 l40 0 0 -107 c0 -113 7 -140 34 -130
13 5 16 25 16 121 l0 115 43 3 c29 2 42 8 42 18 0 12 -20 16 -107 18 -103 3
-108 2 -108 -18z"/>
<path d="M1891 1541 c-8 -5 -11 -16 -8 -25 5 -12 20 -16 57 -16 42 0 50 3 50
19 0 29 -65 43 -99 22z"/>
</g>
</svg>
